#!OML:ASF I:\Actors\actors\Patient Classification 1\Patient 1\Session 1\Subject1.ASF
:FULLY-SPECIFIED
:DEGREES
926
root 0.82952 17.5167 8.22212 8.60858 1.26013 -8.56969
lowerback 7.99758 2.38067 12.9723
upperback -6.54886 5.37919 4.35186
thorax -11.0149 1.77675 -3.36347
lowerneck -13.8155 -6.92738 -0.189353
upperneck 23.349 -9.31041 -1.56761
head 9.58005 -4.51489 -1.64044
rclavicle -3.77691e-015 9.54166e-015
rhumerus 34.0014 14.6311 -70.6504
rradius 58.0262
rwrist -26.4022
rhand 16.1422 -64.743
rfingers 7.12502
rthumb 40.9257 -89.6829
lclavicle -3.77691e-015 9.54166e-015
lhumerus -45.9136 24.1921 66.9633
lradius 91.3785
lwrist 61.5536
lhand -23.4332 16.3649
lfingers 7.12502
lthumb 3.02472 46.3232
rfemur -8.15076 21.4825 22.8125
rtibia 5.44904
rfoot -11.1976 -26.6082
rtoes 3.1259
lfemur -5.42737 -30.6866 -5.54466
ltibia 0.212121
lfoot -7.43279 36.3756
ltoes -5.49867
927
root 0.819961 17.5259 8.22874 9.02091 0.84397 -7.63828
lowerback 7.41217 2.52116 11.5634
upperback -6.55053 5.27631 4.23442
thorax -10.7441 1.85024 -2.68356
lowerneck -13.7557 -6.81865 0.0261249
upperneck 23.0748 -9.13437 -1.84114
head 9.44735 -4.45156 -1.73378
rclavicle 3.52843e-015 3.18055e-015
rhumerus 34.6379 15.8466 -70.4197
rradius 59.4951
rwrist -26.8734
rhand 15.881 -65.1921
rfingers 7.12502
rthumb 40.6803 90.2093
lclavicle 3.52843e-015 3.18055e-015
lhumerus -45.8321 24.5167 67.0085
lradius 91.3033
lwrist 61.4864
lhand -22.9052 16.7778
lfingers 7.12502
lthumb 3.53464 46.7283
rfemur -8.71411 21.9604 21.4759
rtibia 5.4691
rfoot -11.2226 -26.8153
rtoes 3.31726
lfemur -5.79362 -31.0115 -6.42271
ltibia 0.261841
lfoot -7.79752 36.9958
ltoes -4.65341
928
root 0.820919 17.5267 8.22912 9.19117 0.493906 -7.2538
lowerback 7.0058 2.60683 10.7857
upperback -6.37996 5.22259 4.34097
thorax -10.3673 1.91507 -2.1158
lowerneck -13.6418 -6.76054 0.61635
upperneck 22.4916 -8.94694 -2.80162
head 9.14191 -4.43421 -2.10128
rclavicle -3.05134e-014 0
rhumerus 35.5843 17.2065 -69.949
rradius 60.7822
rwrist -27.4435
rhand 15.7459 -65.1379
rfingers 7.12502
rthumb 40.5533 90.1946
lclavicle -3.05134e-014 0
lhumerus -45.6112 24.8315 67.4169
lradius 91.4203
lwrist 62.1115
lhand -23.699 16.8813
lfingers 7.12502
lthumb 2.76808 46.8431
rfemur -8.92872 22.1154 20.8959
rtibia 5.38963
rfoot -11.1206 -26.7052
rtoes 3.26135
lfemur -5.85281 -31.2565 -6.8826
ltibia 0.286641
lfoot -8.05276 37.5101
ltoes -4.27412
929
root 0.825104 17.5249 8.22176 9.23255 0.168241 -7.20936
lowerback 6.9347 2.67553 10.5916
upperback -6.24818 5.27087 4.40004
thorax -10.1872 1.96797 -1.94839
lowerneck -13.6013 -6.72243 0.919595
upperneck 22.1718 -8.85475 -3.24322
head 8.98635 -4.42066 -2.27222
rclavicle -2.31584e-014 -5.24792e-014
rhumerus 36.4362 18.5544 -69.6236
rradius 61.8767
rwrist -28.2964
rhand 15.9515 -65.2627
rfingers 7.12502
rthumb 40.7465 90.2592
lclavicle -2.31584e-014 -5.24792e-014
lhumerus -45.3725 24.7706 67.9797
lradius 91.832
lwrist 63.875
lhand -26.8024 16.0148
lfingers 7.12502
lthumb -0.229259 45.9944
rfemur -8.99683 22.199 20.7835
rtibia 5.31416
rfoot -11.0187 -26.5113
rtoes 3.12668
lfemur -5.82401 -31.2593 -7.00482
ltibia 0.356731
lfoot -8.23611 37.7798
ltoes -3.88434
930
root 0.828962 17.5238 8.20893 9.29205 -0.188899 -7.16501
lowerback 7.0102 2.74723 10.6812
upperback -6.16337 5.36401 4.25252
thorax -10.1037 2.00533 -2.17137
lowerneck -13.7858 -6.66909 0.737158
upperneck 22.2629 -8.85186 -2.76681
head 9.08694 -4.37845 -2.09624
rclavicle -1.75427e-014 -1.27222e-014
rhumerus 37.145 19.8736 -69.5815
rradius 62.7856
rwrist -29.5717
rhand 15.8365 -65.7771
rfingers 7.12502
rthumb 40.6384 90.8073
lclavicle -1.75427e-014 -1.27222e-014
lhumerus -45.11 24.7639 68.0585
lradius 91.7977
lwrist 63.7984
lhand -26.8967 15.8955
lfingers 7.12502
lthumb -0.320272 45.875
rfemur -9.1275 22.2797 20.6564
rtibia 5.26332
rfoot -10.846 -26.3108
rtoes 2.53369
lfemur -5.86134 -31.0857 -7.08335
ltibia 0.438816
lfoot -8.36735 37.9212
ltoes -3.46069
931
root 0.833518 17.5227 8.19237 9.3507 -0.538012 -7.11709
lowerback 7.14688 2.81536 10.7491
upperback -6.02773 5.45686 4.13826
thorax -10.0038 2.04791 -2.3497
lowerneck -14.1673 -6.63719 0.495863
upperneck 22.4028 -8.86698 -2.29094
head 9.24381 -4.34694 -1.92276
rclavicle -2.0276e-014 -4.29375e-014
rhumerus 37.9051 21.2621 -69.4759
rradius 63.5151
rwrist -30.555
rhand 15.8287 -66.2316
rfingers 7.12502
rthumb 40.6311 91.2641
lclavicle -2.0276e-014 -4.29375e-014
lhumerus -44.7546 24.8314 68.2607
lradius 91.7447
lwrist 63.7531
lhand -26.773 15.7408
lfingers 7.12502
lthumb -0.200819 45.7204
rfemur -9.26077 22.3184 20.5186
rtibia 5.18077
rfoot -10.5921 -26.0796
rtoes 1.78009
lfemur -5.91433 -30.8682 -7.15177
ltibia 0.496408
lfoot -8.51141 38.0226
ltoes -3.02453
